<?xml version="1.0" standalone="no"?>
<!DOCTYPE svg PUBLIC "-//W3C//DTD SVG 1.1//EN" "http://www.w3.org/Graphics/SVG/1.1/DTD/svg11.dtd">
<svg xmlns="http://www.w3.org/2000/svg">
<defs >
<font id="Changa" horiz-adv-x="579" ><font-face
    font-family="Changa ExtraLight"
    units-per-em="1000"
    panose-1="0 0 0 0 0 0 0 0 0 0"
    ascent="1227"
    descent="-613"
    alphabetic="0" />
<glyph unicode=" " horiz-adv-x="250" />
<glyph unicode="!" horiz-adv-x="250" d="M93 196L63 627Q63 634 67 639T87 645H161Q176 645 181 640T186 627L156 196H93ZM61 61Q61 96 72 112T124 128Q162 128 174 112T187 61Q187 25 175 10T124 -6Q84 -6 73 9T61 61Z" />
<glyph unicode="&quot;" horiz-adv-x="410" d="M275 390L240 565V623Q240 634 247 642T277 650H313Q335 650 342 642T350 623V565L315 390H275ZM95 390L60 565V623Q60 634 68 642T97 650H133Q155 650 162 642T170 623V565L135 390H95Z" />
<glyph unicode="#" horiz-adv-x="739" d="M323 -40L592 640Q597 653 605 659T635 665H676L407 -15Q401 -28 393 -34T364 -40H323ZM30 156L45 193Q53 212 63 216T87 221H612L597 184Q589 165 580 161T556 156H30ZM66 -40L335 640Q340 653 348 659T378 665H419L150
-15Q145 -28 137 -34T107 -40H66ZM130 402L145 439Q153 458 163 462T187 467H712L697 430Q689 410 680 406T656 402H130Z" />
<glyph unicode="$" horiz-adv-x="528" d="M197 -130L274 754H338L261 -130H197ZM75 102Q113 92 164 86T261 80Q285 80 308 81T370 85V263L278 269Q215 274 174 283T110 311T78 361T68 438Q68 507 86 547T143 606T249 624Q346 624 442 606L429 531Q387 538 347
541T255 545Q227 545 210 544T172 540V362L278 355Q352 350 394 333T455 278T473 177Q473 111 452 73T383 18T253 1Q202 1 156 6T61 24L75 102Z" />
<glyph unicode="%" horiz-adv-x="1161" d="M66 427Q66 495 72 537T96 601T149 631T240 640Q296 640 330 632T382 602T406 537T413 427Q413 358 407 316T384 252T332 222T240 214Q183 214 149 222T96 251T72 315T66 427ZM135 585V304Q135 283 148 277T202 270H345V550Q345
571 330 578T273 585H135ZM493 -15Q486 -27 479 -33T450 -40H429L668 640Q673 653 681 659T711 665H732L493 -15ZM748 203Q748 271 754 313T778 377T831 407T922 416Q978 416 1012 408T1064 378T1088 313T1095 203Q1095 134 1089 92T1066 28T1014 -2T922 -10Q865
-10 831 -2T778 27T754 91T748 203ZM817 361V80Q817 59 830 53T884 46H1027V326Q1027 347 1012 354T955 361H817Z" />
<glyph unicode="&amp;" horiz-adv-x="584" d="M169 272L211 351H570L558 272H169ZM115 363Q117 445 128 498T164 583T231 627T336 640Q360 640 386 637T436 630T475 619L462 537Q444 542 417 546T363 552T314 555Q260 555 241 539T221 479V326L182 278V141Q182
54 273 54Q319 54 359 61T452 86L466 39Q404 17 364 6T292 -10T227 -15Q147 -15 111 29T75 170Q75 319 166 343V347L115 363ZM401 278H502V-106L449 -113L401 278Z" />
<glyph unicode="&apos;" horiz-adv-x="230" d="M95 390L60 565V623Q60 634 68 642T97 650H133Q155 650 162 642T170 623V565L135 390H95Z" />
<glyph unicode="(" horiz-adv-x="306" d="M242 -106Q182 -81 137 -31T66 103T40 312Q40 437 66 520T137 655T242 730L256 654Q230 632 209 604T173 537T149 443T140 312Q140 235 148 180T172 87T209 20T256 -30L242 -106Z" />
<glyph unicode=")" horiz-adv-x="306" d="M64 -106Q124 -81 169 -31T240 103T266 312Q266 437 240 520T169 655T64 730L50 654Q76 632 97 604T133 537T157 443T166 312Q166 235 158 180T134 87T97 20T50 -30L64 -106Z" />
<glyph unicode="*" horiz-adv-x="518" d="M339 335L310 377L245 518L273 539L388 433L417 392L339 335ZM179 335L101 392L130 433L245 539L273 518L208 377L179 335ZM254 512L99 531L50 546L80 637L129 621L264 545L254 512ZM242 529L211 682V733H307V682L276
529H242ZM264 512L254 545L389 621L438 637L468 546L419 531L264 512Z" />
<glyph unicode="+" horiz-adv-x="530" d="M80 352H450V272H80V352ZM225 127V497H305V127H225Z" />
<glyph unicode="," horiz-adv-x="230" d="M116 -108L71 -94L91 -4Q68 1 59 15T50 62Q50 101 64 116T117 131Q152 131 166 116T180 62Q180 50 178 38T170 11T154 -27L116 -108Z" />
<glyph unicode="-" horiz-adv-x="350" d="M33 283Q33 307 45 312T84 317H317V267Q317 243 305 238T266 233H33V283Z" />
<glyph unicode="." horiz-adv-x="230" d="M50 62Q50 98 62 114T115 131Q155 131 167 115T180 62Q180 25 168 10T115 -6Q74 -6 62 9T50 62Z" />
<glyph unicode="/" horiz-adv-x="404" d="M74 -15Q66 -30 57 -35T31 -40H0L330 640Q338 655 347 660T373 665H404L74 -15Z" />
<glyph unicode="0" horiz-adv-x="623" d="M60 312Q60 417 69 481T105 580T182 627T312 640Q393 640 442 628T517 581T553 482T563 312Q563 227 558 169T537 75T495 19T422 -8T312 -15Q246 -15 202 -8T129 18T86 74T66 169T60 312ZM167 555V123Q167 91 185 81T260
70H456V502Q456 534 436 544T357 555H167Z" />
<glyph unicode="1" horiz-adv-x="435" d="M35 0V83H183V540L25 522V610L283 640V83H405V0H35Z" />
<glyph unicode="2" horiz-adv-x="550" d="M55 0V85Q55 132 60 165T84 224T137 274T233 326T383 391V548Q367 552 346 553T289 555Q242 555 187 550T83 536L70 614Q113 627 166 633T276 640Q387 640 438 602T490 481Q490 442 484 414T458 361T402 314T303 262T150
196V83H479V0H55Z" />
<glyph unicode="3" horiz-adv-x="501" d="M222 -15Q167 -15 118 -8T30 11L42 89Q83 80 135 75T235 70Q316 70 344 77V268L170 290V343L344 371V548Q318 555 256 555Q209 555 157 550T63 536L52 614Q91 627 143 633T252 640Q352 640 401 598T451 471Q451 419 431
379T373 319V314Q413 292 432 256T451 163Q451 97 430 58T358 2T222 -15Z" />
<glyph unicode="4" horiz-adv-x="574" d="M359 139H30V189L258 625H459V222H524V139H459V0H359V139ZM148 222H359V550H320L148 222Z" />
<glyph unicode="5" horiz-adv-x="530" d="M266 -15Q208 -15 155 -9T60 11L73 89Q120 80 172 75T269 70Q308 70 332 71T373 77V244L290 252Q225 259 184 268T120 290T89 325T80 379L90 625H452L444 542H190V350L249 344Q338 335 388 316T459 261T480 164Q480 71
429 28T266 -15Z" />
<glyph unicode="6" horiz-adv-x="564" d="M282 -15Q212 -15 167 -2T98 46T64 145T55 312Q55 410 66 473T105 573T181 625T305 640Q330 640 365 636T432 626T483 614L470 536Q435 544 385 549T292 555Q249 555 212 553T162 548V365H308Q413 365 461 323T509 185Q509
111 487 67T416 4T282 -15ZM162 64H339Q377 64 389 72T402 106V286H225Q187 286 175 278T162 244V64Z" />
<glyph unicode="7" horiz-adv-x="467" d="M217 0H116L318 542H33L25 625H427V563L217 0Z" />
<glyph unicode="8" horiz-adv-x="580" d="M291 640Q373 640 422 624T493 570T515 469Q515 419 504 374T471 302V295Q496 279 510 245T525 171Q525 115 515 79T479 22T407 -6T291 -15Q220 -15 175 -7T103 22T66 79T55 171Q55 220 71 264T113 329V336Q90 357 78
392T65 469Q65 531 87 568T159 623T291 640ZM197 301Q182 307 174 307Q162 307 162 290V64H347Q389 64 403 72T417 106L418 226L197 301ZM378 334Q383 333 387 332T395 330Q405 330 411 335T418 348V561H232Q190 561 176 553T162 519V408L378 334Z" />
<glyph unicode="9" horiz-adv-x="564" d="M258 -15Q232 -15 196 -11T125 -1T71 12L83 90Q121 82 173 77T271 71Q314 71 351 73T402 78V261H256Q151 261 103 304T55 441Q55 514 77 558T148 621T282 640Q353 640 397 627T466 579T500 480T509 314Q509 216 498 152T458
52T382 0T258 -15ZM215 341H402V520Q402 546 392 554T349 562H162V383Q162 358 172 350T215 341Z" />
<glyph unicode=":" horiz-adv-x="221" d="M50 62Q50 98 62 114T115 131Q155 131 167 115T180 62Q180 25 168 10T115 -6Q74 -6 62 9T50 62ZM50 436Q50 472 62 488T115 505Q155 505 167 489T180 436Q180 399 168 384T115 368Q74 368 62 383T50 436Z" />
<glyph unicode=";" horiz-adv-x="221" d="M116 -108L71 -94L91 -4Q68 1 59 15T50 62Q50 101 64 116T117 131Q152 131 166 116T180 62Q180 50 178 38T170 11T154 -27L116 -108ZM50 436Q50 472 62 488T115 505Q155 505 167 489T180 436Q180 399 168 384T115 368Q74
368 62 383T50 436Z" />
<glyph unicode="&lt;" horiz-adv-x="530" d="M450 130L80 260V364L450 494V412L123 300V324L450 212V130Z" />
<glyph unicode="=" horiz-adv-x="530" d="M80 508H450V428H80V508ZM80 452H450V372H80V452Z" />
<glyph unicode="&gt;" horiz-adv-x="530" d="M80 494L450 364V260L80 130V212L407 324V300L80 412V494Z" />
<glyph unicode="?" horiz-adv-x="418" d="M142 196L131 365Q130 379 143 387T196 409L291 442V559Q271 562 248 563T202 565Q175 565 134 560T46 545L33 613Q121 640 200 640Q272 640 314 627T376 583T396 503Q396 469 390 446T365 405T309 370T210 332L205 196H142ZM110
61Q110 96 121 112T173 128Q211 128 223 112T236 61Q236 25 224 10T173 -6Q133 -6 122 9T110 61Z" />
<glyph unicode="@" horiz-adv-x="811" d="M627 473Q608 476 577 478T510 481T441 483Q395 483 348 479T262 459T199 408T175 310V84Q175 25 194 -8T247 -56T321 -76T407 -80H600V-148Q557 -156 517 -160T434 -165Q339 -165 269 -148T152 -92T83 13T60 178V259Q60
354 86 416T159 514T272 565T416 580Q579 580 652 535T726 393V0H680L653 50Q583 -10 474 -10Q391 -10 356 24T321 140Q321 192 331 224T371 272T458 293T611 299H656V234H493Q446 234 429 222T412 176V67H546Q592 67 609 79T626 125L627 473Z" />
<glyph unicode="A" horiz-adv-x="551" d="M15 0L200 625H351L536 0H436L280 533H271L115 0H15ZM107 140V219H446V140H107Z" />
<glyph unicode="B" horiz-adv-x="582" d="M90 625H330Q418 625 459 587T501 470Q501 415 487 380T440 322V316Q484 301 508 265T532 176Q532 90 489 45T362 0H90V625ZM190 28L145 73H348Q393 73 412 98T432 182Q432 235 413 257T349 280H174V350H321Q366 350 383
371T401 450Q401 508 384 530T322 552H145L190 597V28Z" />
<glyph unicode="C" horiz-adv-x="489" d="M464 11Q428 -3 388 -9T294 -15Q225 -15 180 0T110 52T75 152T65 312Q65 409 75 473T112 573T184 625T304 640Q325 640 352 638T406 630T451 619L438 537Q413 543 383 547T326 553T282 555Q224 555 198 542T172 479V83Q198
75 228 72T291 68Q333 68 374 75T454 93L464 11Z" />
<glyph unicode="D" horiz-adv-x="624" d="M90 625H314Q390 625 438 612T512 566T549 471T559 312Q559 215 549 154T513 59T438 13T314 0H90V625ZM190 542V83H373Q417 83 434 99T451 156V469Q451 510 434 526T373 542H190Z" />
<glyph unicode="E" horiz-adv-x="515" d="M190 273V83H465V0H90V625H462L450 542H190V352H427V273H190Z" />
<glyph unicode="F" horiz-adv-x="450" d="M190 260V0H90V625H430L419 542H190V339H390V260H190Z" />
<glyph unicode="G" horiz-adv-x="570" d="M278 -15Q213 -15 171 -2T106 45T74 144T65 312Q65 409 75 473T113 573T187 625T310 640Q334 640 366 638T428 630T481 619L468 537Q439 543 404 547T337 553T285 555Q225 555 198 542T171 479V65H492L505 20Q455 1 402
-7T278 -15ZM416 30V265H321V344H505V20L416 30Z" />
<glyph unicode="H" horiz-adv-x="640" d="M190 0H90V625H190V0ZM450 625H550V0H450V625ZM466 270H174V349H466V270Z" />
<glyph unicode="I" horiz-adv-x="280" d="M90 625H190V0H90V625Z" />
<glyph unicode="J" horiz-adv-x="351" d="M20 80H113Q133 80 147 84T161 110V542H61V625H261V135Q261 81 243 52T191 11T106 0H32L20 80Z" />
<glyph unicode="K" horiz-adv-x="553" d="M432 0L359 155Q345 184 332 216T319 282H174V360H319Q319 393 331 425T359 487L427 625H538L388 321L543 0H432ZM90 0V625H190V0H90Z" />
<glyph unicode="L" horiz-adv-x="430" d="M90 0V625H190V83H420V0H90Z" />
<glyph unicode="M" horiz-adv-x="795" d="M75 0L117 625H255L394 157H401L540 625H678L720 0H621L589 493H583L438 0H357L212 493H206L174 0H75Z" />
<glyph unicode="N" horiz-adv-x="661" d="M95 0V625H192L434 235Q449 211 453 200T460 173H466V625H566V0H469L227 390Q212 415 207 425T201 452H195V0H95Z" />
<glyph unicode="O" horiz-adv-x="636" d="M65 312Q65 414 75 478T113 578T189 626T318 640Q396 640 445 627T522 578T560 478T571 312Q571 210 561 146T523 47T446 -1T318 -15Q239 -15 190 -2T113 47T76 146T65 312ZM172 70H378Q426 70 445 86T464 143V555H257Q209
555 191 539T172 482V70Z" />
<glyph unicode="P" horiz-adv-x="530" d="M190 206V0H90V625H335Q401 625 439 605T493 539T510 414Q510 303 473 255T350 206H190ZM190 285H336Q375 285 390 294T405 327V500Q405 524 390 533T336 542H190V285Z" />
<glyph unicode="Q" horiz-adv-x="626" d="M313 -15Q236 -15 188 -2T112 47T75 146T65 312Q65 413 75 477T112 577T187 626T313 640Q389 640 438 626T513 577T550 478T561 312Q561 215 552 156T520 64T459 15L370 13L313 -15ZM173 70H370Q416 70 434 86T453 143V555H255Q208
555 191 539T173 482V70ZM543 -72L370 -15V13L457 53L568 -17L543 -72Z" />
<glyph unicode="R" horiz-adv-x="580" d="M190 221V0H90V625H340Q406 625 444 605T498 539T515 414Q515 310 478 266T355 221H190ZM190 300H341Q380 300 395 309T410 342V500Q410 524 395 533T341 542H190V300ZM415 268L545 0H436L318 250L415 268Z" />
<glyph unicode="S" horiz-adv-x="519" d="M61 91Q101 80 154 74T257 68Q282 68 306 69T370 74V260L275 267Q208 271 165 282T98 312T64 364T54 445Q54 517 72 559T133 621T244 640Q346 640 446 621L433 542Q389 550 346 553T250 557Q221 557 203 556T163 552V364L274
357Q352 352 397 334T460 276T479 170Q479 101 457 61T385 3T248 -15Q195 -15 146 -10T46 9L61 91Z" />
<glyph unicode="T" horiz-adv-x="460" d="M280 542V0H180V542H15V625H445V542H280Z" />
<glyph unicode="U" horiz-adv-x="638" d="M319 -15Q246 -15 200 -6T127 25T91 87T80 189V625H180V70H324Q378 70 407 74T447 89T458 123V625H558V189Q558 127 548 88T512 26T439 -6T319 -15Z" />
<glyph unicode="V" horiz-adv-x="521" d="M10 625H110L256 92H265L411 625H511L336 0H185L10 625Z" />
<glyph unicode="W" horiz-adv-x="802" d="M25 625H125L211 92H220L348 625H431L286 0H130L25 625ZM777 625L672 0H516L371 625H454L582 92H591L677 625H777Z" />
<glyph unicode="X" horiz-adv-x="530" d="M520 0H408L18 625H130L520 0ZM281 273L119 0H10L230 365L281 273ZM241 352L403 625H512L293 260L241 352Z" />
<glyph unicode="Y" horiz-adv-x="490" d="M227 277L376 625H480L295 215V0H195V215L10 625H114L263 277H227Z" />
<glyph unicode="Z" horiz-adv-x="545" d="M35 0V67L377 536L374 542H85L73 625H510V558L168 89L171 83H494V0H35Z" />
<glyph unicode="[" horiz-adv-x="279" d="M70 625Q70 664 86 687T139 720T242 730L249 653L166 645V-20L249 -28L242 -105Q177 -105 140 -95T86 -62T70 0V625Z" />
<glyph unicode="\" horiz-adv-x="413" d="M0 665H41Q62 665 69 659T84 640L413 -40H372Q351 -40 344 -34T329 -15L0 665Z" />
<glyph unicode="]" horiz-adv-x="279" d="M209 625Q209 664 193 687T140 720T37 730L30 653L113 645V-20L30 -28L37 -105Q102 -105 139 -95T193 -62T209 0V625Z" />
<glyph unicode="^" horiz-adv-x="530" d="M63 120L213 504H317L467 120H385L255 461H275L145 120H63Z" />
<glyph unicode="_" horiz-adv-x="495" d="M25 -37Q25 -8 39 -2T84 5H470V-37Q470 -66 456 -72T411 -79H25V-37Z" />
<glyph unicode="`" horiz-adv-x="600" d="M269 554L129 589Q120 592 116 593T107 599L80 621Q73 627 73 632Q73 636 80 644L123 697Q127 702 131 702Q134 702 139 698L291 588L269 554Z" />
<glyph unicode="a" horiz-adv-x="545" d="M208 -10Q125 -10 90 24T55 140Q55 192 65 224T105 272T192 293T345 299H390V234H227Q180 234 163 222T146 176V67H280Q326 67 343 79T360 125V420Q323 431 259 431Q220 431 177 425T90 407L77 480Q102 489 135 496T204
506T276 510Q344 510 384 497T442 453T460 370V0H414L387 50Q317 -10 208 -10Z" />
<glyph unicode="b" horiz-adv-x="569" d="M329 515Q383 515 418 503T473 462T501 382T509 250Q509 171 500 121T470 42T409 2T309 -10Q251 -10 215 0T159 37T133 116T125 250Q125 334 133 386T162 466T224 504T329 515ZM404 433H236Q209 433 200 428T190 408V72H358Q384
72 394 76T404 92V433ZM90 665L190 677V100V52L309 -10Q248 -10 198 -3T90 21V665Z" />
<glyph unicode="c" horiz-adv-x="453" d="M240 -10Q186 -10 151 1T96 42T68 121T60 250Q60 329 68 379T96 458T151 498T240 510Q267 510 296 508T353 502T402 492L390 416Q354 424 320 427T251 431Q202 431 183 413T164 347V80Q200 69 266 69Q298 69 328 74T402
93L413 20Q379 6 334 -2T240 -10Z" />
<glyph unicode="d" horiz-adv-x="569" d="M240 510Q305 510 345 500T406 462T436 383T444 250Q444 166 436 114T407 33T345 -5T240 -15Q185 -14 150 -3T96 38T68 118T60 250Q60 329 68 379T96 459T151 499T240 510ZM379 428H211Q184 428 175 423T165 403V67H333Q360
67 369 72T379 92V428ZM479 677V0H433L379 100V665L479 677Z" />
<glyph unicode="e" horiz-adv-x="541" d="M254 -10Q197 -10 159 2T100 43T69 122T60 250Q60 349 79 406T145 486T271 510Q350 510 393 497T454 452T471 360Q471 308 460 276T418 228T326 207T165 201H135V266H297Q346 266 363 278T381 324V428H248Q200 428 183
416T165 370V80Q205 69 272 69Q312 69 351 74T445 93L458 20Q421 6 367 -2T254 -10Z" />
<glyph unicode="f" horiz-adv-x="333" d="M220 0H120V494Q124 564 135 603T172 659T241 675Q264 675 287 673T333 665L327 593L220 602V0ZM300 500V431H50V500H300Z" />
<glyph unicode="g" horiz-adv-x="506" d="M242 146Q167 146 125 163T64 220T45 330Q45 400 63 440T124 497T242 515Q316 515 359 498T421 440T440 330Q440 260 422 220T361 163T242 146ZM144 212H268Q309 212 325 225T341 274V449H217Q176 449 160 436T144 387V212ZM446
-39Q446 -86 427 -113T365 -153T247 -165Q193 -165 142 -157T53 -135L66 -59Q117 -72 154 -77T229 -83Q269 -83 299 -81T357 -72V2Q255 8 212 18T169 45L199 160H263L257 74Q317 68 354 60T411 40T438 9T446 -39ZM405 415L346 487L431 552L481 503L405 415Z" />
<glyph unicode="h" horiz-adv-x="576" d="M90 0V657L188 665V467Q220 489 259 499T349 510Q419 510 455 489T491 425V0H391V428H275Q225 428 208 416T190 370V0H90Z" />
<glyph unicode="i" horiz-adv-x="280" d="M90 493L190 508V0H90V493ZM141 587Q105 587 92 599T79 647Q79 683 92 696T141 709Q176 709 188 696T201 647Q201 612 189 600T141 587Z" />
<glyph unicode="j" horiz-adv-x="280" d="M66 -175Q46 -175 26 -172T-11 -164L-5 -106Q35 -106 55 -102T83 -84T90 -45V493L190 508V-60Q190 -119 160 -147T66 -175ZM141 587Q105 587 92 599T79 647Q79 683 92 696T141 709Q176 709 188 696T201 647Q201 612 189
600T141 587Z" />
<glyph unicode="k" horiz-adv-x="495" d="M269 232H190V0H90V650L190 665V302H269L375 500H480L352 267L485 0H382L269 232Z" />
<glyph unicode="l" horiz-adv-x="271" d="M185 74Q194 73 206 72T231 69L225 1Q204 -5 189 -7T159 -10Q121 -10 103 8T85 65V650L185 665V74Z" />
<glyph unicode="m" horiz-adv-x="856" d="M90 0V500H136L163 450Q199 481 242 495T339 510Q409 510 445 489T481 425V0H381V428H275Q226 428 208 416T190 370V0H90ZM381 0V500L453 450Q489 481 532 495T629 510Q699 510 735 489T771 425V0H671V428H565Q516 428
498 416T480 370V0H381Z" />
<glyph unicode="n" horiz-adv-x="576" d="M90 0V500H136L163 450Q200 481 245 495T349 510Q419 510 455 489T491 425V0H391V428H275Q226 428 208 416T190 370V0H90Z" />
<glyph unicode="o" horiz-adv-x="554" d="M277 -10Q211 -10 169 1T104 41T70 121T60 250Q60 329 70 379T103 458T169 498T277 510Q343 510 385 499T452 459T485 380T494 250Q494 172 485 121T451 42T385 2T277 -10ZM164 72H342Q370 72 380 77T390 97V428H212Q183
428 174 423T164 403V72Z" />
<glyph unicode="p" horiz-adv-x="569" d="M329 -15Q265 -15 225 -5T163 34T133 114T125 250Q125 332 133 383T162 462T224 500T329 510Q384 510 419 499T473 459T501 380T509 250Q509 171 501 120T473 39T418 -3T329 -15ZM190 67H358Q385 67 394 72T404 92V428H236Q210
428 200 424T190 408V67ZM90 -177V500H136L190 400V-165L90 -177Z" />
<glyph unicode="q" horiz-adv-x="569" d="M240 -15Q186 -15 151 -3T96 38T68 119T60 250Q60 329 68 379T95 458T150 498T240 510Q305 510 345 500T406 463T436 384T444 250Q444 166 436 114T407 34T345 -4T240 -15ZM165 67H333Q360 67 369 72T379 92V428H211Q185
428 175 424T165 408V67ZM479 -165L379 -177V400L433 500H479V-165Z" />
<glyph unicode="r" horiz-adv-x="334" d="M137 500L172 421Q217 461 249 483T309 515L319 417Q297 410 274 400T229 378T190 353V0H90V500H137Z" />
<glyph unicode="s" horiz-adv-x="481" d="M56 366Q56 443 101 479T245 515Q290 515 330 510T411 493L397 420Q372 427 339 431T275 436Q243 436 213 434T161 427V309Q248 297 302 284T385 254T425 209T436 141Q436 84 416 50T349 1T226 -15Q182 -15 137 -8T45
14L61 94Q137 64 225 64Q255 64 277 66T331 78V196Q239 209 184 221T102 250T65 295T56 366Z" />
<glyph unicode="t" horiz-adv-x="354" d="M194 -10Q157 -10 139 8T120 65V607L220 632V74Q234 73 250 72T291 69L285 1Q254 -5 232 -7T194 -10ZM50 431V500H309V431H50Z" />
<glyph unicode="u" horiz-adv-x="576" d="M486 500V0H440L413 50Q373 19 326 5T217 -10Q149 -10 117 15T85 95V500H185V67H301Q351 67 368 79T386 125V500H486Z" />
<glyph unicode="v" horiz-adv-x="460" d="M6 500H105L225 85H235L355 500H454L306 0H154L6 500Z" />
<glyph unicode="w" horiz-adv-x="702" d="M435 0L317 500H397L492 85H502L597 500H696L573 0H435ZM129 0L6 500H105L200 85H210L305 500H385L267 0H129Z" />
<glyph unicode="x" horiz-adv-x="506" d="M373 0L31 500H138L480 0H373ZM26 0L204 273L263 208L132 0H26ZM296 227L238 292L369 500H475L296 227Z" />
<glyph unicode="y" horiz-adv-x="450" d="M149 30L6 500H105L220 115H230L345 500H444L301 30H149ZM93 -175Q71 -175 48 -172T6 -164L10 -111L79 -102Q117 -97 138 -88T172 -58T196 0L205 30H301Q278 -47 251 -92T186 -156T93 -175Z" />
<glyph unicode="z" horiz-adv-x="473" d="M309 422L305 428H68L60 500H433V445L164 78L167 72H428V0H40V55L309 422Z" />
<glyph unicode="{" horiz-adv-x="316" d="M183 -20L266 -27L260 -105Q216 -105 184 -103T129 -90T98 -57T90 6L105 256L40 273V349L105 366L90 619Q88 659 96 681T126 714T180 727T260 730L266 652L183 645L201 447Q206 401 192 369T145 317V305Q177 285 191 253T201
175L183 -20Z" />
<glyph unicode="|" horiz-adv-x="260" d="M100 704H160V-180H100V704Z" />
<glyph unicode="}" horiz-adv-x="316" d="M133 -20L50 -27L56 -105Q100 -105 132 -103T187 -90T218 -57T226 6L211 256L276 273V349L211 366L226 619Q228 659 220 681T190 714T136 727T56 730L50 652L133 645L115 447Q110 401 124 369T171 317V305Q139 285 125
253T115 175L133 -20Z" />
<glyph unicode="~" horiz-adv-x="530" d="M450 273Q430 255 411 248T371 240Q344 240 318 250T265 274T212 299T158 310Q139 310 120 303T80 278V353Q100 370 119 377T158 385Q185 385 211 375T264 351T317 326T371 315Q391 315 410 322T450 348V273Z" />
<glyph unicode="&#xa0;" horiz-adv-x="250" />
<glyph unicode="&#xa1;" horiz-adv-x="250" d="M157 313L187 -118Q187 -125 183 -130T163 -136H89Q74 -136 69 -131T64 -118L94 313H157ZM189 448Q189 413 178 397T126 381Q88 381 76 397T63 448Q63 484 75 499T126 515Q166 515 177 500T189 448Z" />
<glyph unicode="&#xa2;" horiz-adv-x="453" d="M264 89L246 -130H182L200 89H264ZM241 552L259 754H323L305 552H241ZM240 55Q186 55 151 66T96 107T68 186T60 315Q60 394 68 444T96 523T151 563T240 575Q267 575 296 573T353 567T402 557L390 481Q354 489 320
492T251 496Q202 496 183 478T164 412V145Q200 134 266 134Q298 134 328 139T402 158L413 85Q379 71 334 63T240 55Z" />
<glyph unicode="&#xa3;" horiz-adv-x="526" d="M109 49L138 391Q146 483 170 537T240 616T359 640Q376 640 400 637T449 630T495 619L474 537Q447 545 409 550T340 555Q292 555 273 534T247 455L215 74L109 49ZM60 0V48L124 83H473L486 0H60ZM60 287V344H387L382 287H60Z" />
<glyph unicode="&#xa4;" horiz-adv-x="680" d="M341 129Q276 129 234 138T170 170T139 234T130 343Q130 409 139 451T171 516T235 549T341 558Q405 558 446 549T510 517T541 451T550 343Q550 276 542 235T510 170T446 138T341 129ZM124 0L67 35L189 203L246 171L124
0ZM304 211H447V438Q447 462 432 469T371 477H233V248Q233 226 247 219T304 211ZM491 482L434 513L557 686L613 651L491 482ZM556 0L434 171L491 203L613 35L556 0ZM189 482L67 651L123 686L246 513L189 482Z" />
<glyph unicode="&#xa5;" horiz-adv-x="490" d="M60 150V207H440V150H60ZM60 287V344H201V287H60ZM299 287V344H440V287H299ZM227 277L376 625H480L295 215V0H195V215L10 625H114L263 277H227Z" />
<glyph unicode="&#xa6;" horiz-adv-x="260" d="M100 704H160V368H100V704ZM100 156H160V-180H100V156Z" />
<glyph unicode="&#xa7;" horiz-adv-x="477" d="M162 371V193Q249 181 303 169T387 140T426 99T437 35Q437 -22 417 -56T350 -105T227 -121Q184 -121 139 -114T46 -92L62 -12Q139 -42 226 -42Q257 -42 279 -40T332 -28V90Q240 104 186 117T103 148T66 195T57 270Q57
317 76 346T134 391L162 371ZM332 121V309Q240 322 185 334T103 362T66 403T57 469Q57 546 102 582T246 618Q291 618 331 613T412 596L398 523Q372 531 339 535T276 539Q246 539 216 537T162 530V412Q249 399 302 386T385 354T426 306T437 234Q437 184 419 154T362
108L332 121Z" />
<glyph unicode="&#xa8;" horiz-adv-x="600" d="M285 575Q252 575 243 588T233 632Q233 663 242 676T285 690Q317 690 326 677T336 632Q336 601 327 588T285 575ZM102 575Q69 575 60 588T50 632Q50 663 59 676T102 690Q135 690 144 677T153 632Q153 601 144 588T102 575Z" />
<glyph unicode="&#xa9;" horiz-adv-x="563" d="M282 179Q152 179 91 240T30 431Q30 561 91 621T282 682Q412 682 472 622T533 431Q533 301 473 240T282 179ZM289 274Q222 274 195 309T167 429Q167 516 194 551T289 586Q308 586 333 582T369 574L357 514Q345 517
328 519T296 521Q271 521 261 516T251 497V345Q259 343 268 342T289 341Q307 341 327 344T363 352L369 286Q342 274 289 274ZM282 210Q361 210 408 231T477 301T498 431Q498 512 477 560T409 630T282 651Q202 651 155 630T86 561T65 431Q65 350 86 301T154 231T282
210Z" />
<glyph unicode="&#xaa;" horiz-adv-x="396" d="M150 342Q84 342 56 369T28 460Q28 499 36 522T67 558T136 575T254 580H290V531H169Q133 531 120 522T106 487V407H204Q240 407 253 416T266 450V673Q237 680 191 680Q161 680 127 675T57 662L46 724Q77 735 121
741T205 747Q286 747 319 722T353 635L352 350H312L289 389Q233 342 150 342ZM45 247Q45 273 54 281T90 289H336V260Q336 234 328 227T290 219H45V247Z" />
<glyph unicode="&#xab;" horiz-adv-x="432" d="M372 56L221 209V290L372 444L407 417L311 250L407 83L372 56ZM176 56L25 209V290L176 444L211 417L115 250L211 83L176 56Z" />
<glyph unicode="&#xac;" horiz-adv-x="530" d="M380 152V272H450V152H380ZM80 352H450V272H80V352Z" />
<glyph unicode="&#xad;" horiz-adv-x="350" d="M33 283Q33 307 45 312T84 317H317V267Q317 243 305 238T266 233H33V283Z" />
<glyph unicode="&#xae;" horiz-adv-x="563" d="M30 431Q30 561 91 621T282 682Q412 682 472 622T533 431Q533 301 473 240T282 179Q152 179 91 240T30 431ZM65 431Q65 350 86 301T154 231T282 210Q361 210 408 231T477 301T498 431Q498 512 477 560T409 630T282
651Q202 651 155 630T86 561T65 431ZM326 281L284 378H247V281H170V581H302Q402 581 402 480Q402 411 357 389L413 281H326ZM247 437H288Q307 437 314 441T321 458V499Q321 511 315 515T288 519H247V437Z" />
<glyph unicode="&#xaf;" horiz-adv-x="600" d="M123 586Q92 586 85 596T78 632V667H277Q308 667 314 658T321 622V586H123Z" />
<glyph unicode="&#xb0;" horiz-adv-x="407" d="M56 531Q56 604 90 641T204 678Q283 678 317 641T351 531Q351 457 317 420T204 383Q124 383 90 420T56 531ZM140 461H203Q231 461 248 466T265 500V600H208Q177 600 159 595T140 562V461Z" />
<glyph unicode="&#xb1;" horiz-adv-x="531" d="M81 402H451V322H81V402ZM226 177V547H306V177H226ZM80 80H450V0H80V80Z" />
<glyph unicode="&#xb2;" horiz-adv-x="429" d="M64 324V379Q64 417 70 442T99 486T168 527T295 578V680Q284 682 268 683T229 685Q197 685 158 682T83 672L75 723Q104 731 141 735T216 740Q292 740 327 715T363 637Q363 606 357 585T327 546T256 505T125 451V378H355V324H64Z"
/>
<glyph unicode="&#xb3;" horiz-adv-x="400" d="M180 314Q143 314 110 318T50 331L57 382Q88 376 125 373T193 370Q222 370 241 371T270 374V498L148 513V547L270 565V680Q260 682 246 683T209 685Q178 685 141 682T73 672L66 723Q93 731 128 735T203 740Q338 740
338 630Q338 597 325 571T285 531V528Q312 514 325 491T338 430Q338 392 326 366T280 327T180 314Z" />
<glyph unicode="&#xb4;" horiz-adv-x="600" d="M154 564L132 598L284 708Q290 712 292 712Q296 712 300 707L343 654Q350 645 350 642Q350 636 343 631L316 609Q311 605 307 603T294 599L154 564Z" />
<glyph unicode="&#xb5;" horiz-adv-x="581" d="M90 -165V500H190V67H294Q318 67 340 72T376 93T391 145V500H491V0H444L418 50Q399 30 375 20T324 5T276 0H173L141 -165H90Z" />
<glyph unicode="&#xb6;" horiz-adv-x="604" d="M110 35L205 67V297Q138 306 104 347T70 458Q70 625 257 625H524V542H474V0H379V542H269V0H110V35Z" />
<glyph unicode="&#xb7;" horiz-adv-x="230" d="M50 236Q50 272 62 288T115 305Q155 305 167 289T180 236Q180 199 168 184T115 168Q74 168 62 183T50 236Z" />
<glyph unicode="&#xb8;" horiz-adv-x="600" d="M65 -172Q32 -172 -3 -156L4 -107H39Q63 -107 72 -100T82 -75V21H102Q128 7 144 -24T161 -91Q161 -127 135 -149T65 -172Z" />
<glyph unicode="&#xb9;" horiz-adv-x="355" d="M53 324V378H156V675L46 663V721L219 740V378H305V324H53Z" />
<glyph unicode="&#xba;" horiz-adv-x="500" d="M250 352Q196 352 161 361T106 394T78 457T70 560Q70 622 78 662T106 726T161 758T250 768Q304 768 339 759T395 727T422 663T430 560Q430 498 422 458T395 394T340 362T250 352ZM159 422H302Q326 422 333 426T341
442V698H198Q176 698 168 694T159 678V422ZM92 248Q92 273 101 281T141 290H409V261Q409 235 400 228T359 220H92V248Z" />
<glyph unicode="&#xbb;" horiz-adv-x="432" d="M60 444L211 291V210L60 56L25 83L121 250L25 417L60 444ZM256 444L407 291V210L256 56L221 83L317 250L221 417L256 444Z" />
<glyph unicode="&#xbc;" horiz-adv-x="969" d="M53 224V278H156V575L46 563V621L219 640V278H305V224H53ZM369 -15Q362 -27 355 -33T326 -40H305L544 640Q549 653 557 659T587 665H608L369 -15ZM799 90H568V123L731 406H862V144H908V90H862V0H799V90ZM645 144H799V358H771L645
144Z" />
<glyph unicode="&#xbd;" horiz-adv-x="987" d="M53 224V278H156V575L46 563V621L219 640V278H305V224H53ZM369 -15Q362 -27 355 -33T326 -40H305L544 640Q549 653 557 659T587 665H608L369 -15ZM622 0V55Q622 93 628 118T657 162T726 203T853 254V356Q842 358
826 359T787 361Q755 361 716 358T641 348L633 399Q662 407 699 411T774 416Q850 416 885 391T921 313Q921 282 915 261T885 222T814 181T683 127V54H913V0H622Z" />
<glyph unicode="&#xbe;" horiz-adv-x="1014" d="M180 214Q143 214 110 218T50 231L57 282Q88 276 125 273T193 270Q222 270 241 271T270 274V398L148 413V447L270 465V580Q260 582 246 583T209 585Q178 585 141 582T73 572L66 623Q93 631 128 635T203 640Q338
640 338 530Q338 497 325 471T285 431V428Q312 414 325 391T338 330Q338 292 326 266T280 227T180 214ZM414 -15Q407 -27 400 -33T371 -40H350L589 640Q594 653 602 659T632 665H653L414 -15ZM844 90H613V123L776 406H907V144H953V90H907V0H844V90ZM690 144H844V358H816L690
144Z" />
<glyph unicode="&#xbf;" horiz-adv-x="418" d="M276 313L287 144Q288 130 275 122T222 100L127 67V-50Q147 -53 170 -54T216 -56Q243 -56 284 -51T372 -36L385 -104Q297 -131 218 -131Q146 -131 104 -118T42 -74T22 6Q22 40 28 63T53 104T109 139T208 177L213
313H276ZM308 448Q308 413 297 397T245 381Q207 381 195 397T182 448Q182 484 194 499T245 515Q285 515 296 500T308 448Z" />
<glyph unicode="&#xc0;" horiz-adv-x="551" d="M15 0L200 625H351L536 0H436L280 533H271L115 0H15ZM107 140V219H446V140H107ZM363 679L223 714Q214 717 210 718T201 724L174 746Q167 752 167 757Q167 761 174 769L217 822Q221 827 225 827Q228 827 233 823L385
713L363 679Z" />
<glyph unicode="&#xc1;" horiz-adv-x="551" d="M15 0L200 625H351L536 0H436L280 533H271L115 0H15ZM107 140V219H446V140H107ZM213 689L191 723L343 833Q349 837 351 837Q355 837 359 832L402 779Q409 770 409 767Q409 761 402 756L375 734Q370 730 366 728T353
724L213 689Z" />
<glyph unicode="&#xc2;" horiz-adv-x="551" d="M15 0L200 625H351L536 0H436L280 533H271L115 0H15ZM107 140V219H446V140H107ZM193 681L158 715L257 831Q261 837 267 837H285Q291 837 295 831L394 715L359 681L276 745L193 681Z" />
<glyph unicode="&#xc3;" horiz-adv-x="551" d="M15 0L200 625H351L536 0H436L280 533H271L115 0H15ZM107 140V219H446V140H107ZM297 689Q288 689 280 692T260 704T227 732L161 699L133 745Q172 773 195 788T231 809T255 815Q264 815 272 812T291 800T325 772L391
805L419 759Q385 733 362 718T324 696T297 689Z" />
<glyph unicode="&#xc4;" horiz-adv-x="551" d="M15 0L200 625H351L536 0H436L280 533H271L115 0H15ZM107 140V219H446V140H107ZM368 700Q335 700 326 713T316 757Q316 788 325 801T368 815Q400 815 409 802T419 757Q419 726 410 713T368 700ZM185 700Q152 700
143 713T133 757Q133 788 142 801T185 815Q218 815 227 802T236 757Q236 726 227 713T185 700Z" />
<glyph unicode="&#xc5;" horiz-adv-x="551" d="M15 0L200 625H351L536 0H436L280 533H271L115 0H15ZM107 140V219H446V140H107ZM276 664Q223 664 200 689T177 763Q177 812 200 836T276 861Q328 861 351 837T374 763Q374 714 351 689T276 664ZM233 716H275Q294
716 305 719T317 742V809H278Q258 809 246 806T233 784V716Z" />
<glyph unicode="&#xc6;" horiz-adv-x="758" d="M15 0L177 625H658L643 535H389L437 351H616V266H459L504 90H708V0H422L388 137H154L121 0H15ZM176 227H366L292 533H251L176 227Z" />
<glyph unicode="&#xc7;" horiz-adv-x="489" d="M464 11Q428 -3 388 -9T294 -15Q225 -15 180 0T110 52T75 152T65 312Q65 409 75 473T112 573T184 625T304 640Q325 640 352 638T406 630T451 619L438 537Q413 543 383 547T326 553T282 555Q224 555 198 542T172 479V83Q198
75 228 72T291 68Q333 68 374 75T454 93L464 11ZM228 -172Q195 -172 160 -156L167 -107H202Q226 -107 235 -100T245 -75V21H265Q291 7 307 -24T324 -91Q324 -127 298 -149T228 -172Z" />
<glyph unicode="&#xc8;" horiz-adv-x="515" d="M190 273V83H465V0H90V625H462L450 542H190V352H427V273H190ZM368 679L228 714Q219 717 215 718T206 724L179 746Q172 752 172 757Q172 761 179 769L222 822Q226 827 230 827Q233 827 238 823L390 713L368 679Z" />
<glyph unicode="&#xc9;" horiz-adv-x="515" d="M190 273V83H465V0H90V625H462L450 542H190V352H427V273H190ZM218 689L196 723L348 833Q354 837 356 837Q360 837 364 832L407 779Q414 770 414 767Q414 761 407 756L380 734Q375 730 371 728T358 724L218 689Z" />
<glyph unicode="&#xca;" horiz-adv-x="515" d="M190 273V83H465V0H90V625H462L450 542H190V352H427V273H190ZM198 681L163 715L262 831Q266 837 272 837H290Q296 837 300 831L399 715L364 681L281 745L198 681Z" />
<glyph unicode="&#xcb;" horiz-adv-x="515" d="M190 273V83H465V0H90V625H462L450 542H190V352H427V273H190ZM373 700Q340 700 331 713T321 757Q321 788 330 801T373 815Q405 815 414 802T424 757Q424 726 415 713T373 700ZM190 700Q157 700 148 713T138 757Q138
788 147 801T190 815Q223 815 232 802T241 757Q241 726 232 713T190 700Z" />
<glyph unicode="&#xcc;" horiz-adv-x="280" d="M90 625H190V0H90V625ZM483 679L343 714Q334 717 330 718T321 724L294 746Q287 752 287 757Q287 761 294 769L337 822Q341 827 345 827Q348 827 353 823L505 713L483 679Z" />
<glyph unicode="&#xcd;" horiz-adv-x="280" d="M90 625H190V0H90V625ZM333 689L311 723L463 833Q469 837 471 837Q475 837 479 832L522 779Q529 770 529 767Q529 761 522 756L495 734Q490 730 486 728T473 724L333 689Z" />
<glyph unicode="&#xce;" horiz-adv-x="280" d="M90 625H190V0H90V625ZM313 681L278 715L377 831Q381 837 387 837H405Q411 837 415 831L514 715L479 681L396 745L313 681Z" />
<glyph unicode="&#xcf;" horiz-adv-x="280" d="M90 625H190V0H90V625ZM488 700Q455 700 446 713T436 757Q436 788 445 801T488 815Q520 815 529 802T539 757Q539 726 530 713T488 700ZM305 700Q272 700 263 713T253 757Q253 788 262 801T305 815Q338 815 347 802T356
757Q356 726 347 713T305 700Z" />
<glyph unicode="&#xd0;" horiz-adv-x="624" d="M90 625H314Q390 625 438 612T512 566T549 471T559 312Q559 215 549 154T513 59T438 13T314 0H90V625ZM190 542V83H373Q417 83 434 99T451 156V469Q451 510 434 526T373 542H190ZM284 306Q284 332 292 340T325 348H548V319Q548
294 541 286T507 278H284V306Z" />
<glyph unicode="&#xd1;" horiz-adv-x="661" d="M95 0V625H192L434 235Q449 211 453 200T460 173H466V625H566V0H469L227 390Q212 415 207 425T201 452H195V0H95ZM362 689Q353 689 345 692T325 704T292 732L226 699L198 745Q237 773 260 788T296 809T320 815Q329
815 337 812T356 800T390 772L456 805L484 759Q450 733 427 718T389 696T362 689Z" />
<glyph unicode="&#xd2;" horiz-adv-x="636" d="M65 312Q65 414 75 478T113 578T189 626T318 640Q396 640 445 627T522 578T560 478T571 312Q571 210 561 146T523 47T446 -1T318 -15Q239 -15 190 -2T113 47T76 146T65 312ZM172 70H378Q426 70 445 86T464 143V555H257Q209
555 191 539T172 482V70ZM405 679L265 714Q256 717 252 718T243 724L216 746Q209 752 209 757Q209 761 216 769L259 822Q263 827 267 827Q270 827 275 823L427 713L405 679Z" />
<glyph unicode="&#xd3;" horiz-adv-x="636" d="M65 312Q65 414 75 478T113 578T189 626T318 640Q396 640 445 627T522 578T560 478T571 312Q571 210 561 146T523 47T446 -1T318 -15Q239 -15 190 -2T113 47T76 146T65 312ZM172 70H378Q426 70 445 86T464 143V555H257Q209
555 191 539T172 482V70ZM255 689L233 723L385 833Q391 837 393 837Q397 837 401 832L444 779Q451 770 451 767Q451 761 444 756L417 734Q412 730 408 728T395 724L255 689Z" />
<glyph unicode="&#xd4;" horiz-adv-x="636" d="M65 312Q65 414 75 478T113 578T189 626T318 640Q396 640 445 627T522 578T560 478T571 312Q571 210 561 146T523 47T446 -1T318 -15Q239 -15 190 -2T113 47T76 146T65 312ZM172 70H378Q426 70 445 86T464 143V555H257Q209
555 191 539T172 482V70ZM235 681L200 715L299 831Q303 837 309 837H327Q333 837 337 831L436 715L401 681L318 745L235 681Z" />
<glyph unicode="&#xd5;" horiz-adv-x="636" d="M65 312Q65 414 75 478T113 578T189 626T318 640Q396 640 445 627T522 578T560 478T571 312Q571 210 561 146T523 47T446 -1T318 -15Q239 -15 190 -2T113 47T76 146T65 312ZM172 70H378Q426 70 445 86T464 143V555H257Q209
555 191 539T172 482V70ZM339 689Q330 689 322 692T302 704T269 732L203 699L175 745Q214 773 237 788T273 809T297 815Q306 815 314 812T333 800T367 772L433 805L461 759Q427 733 404 718T366 696T339 689Z" />
<glyph unicode="&#xd6;" horiz-adv-x="636" d="M65 312Q65 414 75 478T113 578T189 626T318 640Q396 640 445 627T522 578T560 478T571 312Q571 210 561 146T523 47T446 -1T318 -15Q239 -15 190 -2T113 47T76 146T65 312ZM172 70H378Q426 70 445 86T464 143V555H257Q209
555 191 539T172 482V70ZM410 700Q377 700 368 713T358 757Q358 788 367 801T410 815Q442 815 451 802T461 757Q461 726 452 713T410 700ZM227 700Q194 700 185 713T175 757Q175 788 184 801T227 815Q260 815 269 802T278 757Q278 726 269 713T227 700Z" />
<glyph unicode="&#xd7;" horiz-adv-x="530" d="M85 188L389 492L445 436L141 132L85 188ZM389 132L85 436L141 492L445 188L389 132Z" />
<glyph unicode="&#xd8;" horiz-adv-x="636" d="M65 312Q65 414 75 478T113 578T189 626T318 640Q396 640 445 627T522 578T560 478T571 312Q571 210 561 146T523 47T446 -1T318 -15Q239 -15 190 -2T113 47T76 146T65 312ZM172 70H378Q426 70 445 86T464 143V555H257Q209
555 191 539T172 482V70ZM190 209Q182 192 173 187T147 181H116L446 929Q454 945 463 950T489 956H520L190 209Z" />
<glyph unicode="&#xd9;" horiz-adv-x="638" d="M319 -15Q246 -15 200 -6T127 25T91 87T80 189V625H180V70H324Q378 70 407 74T447 89T458 123V625H558V189Q558 127 548 88T512 26T439 -6T319 -15ZM407 679L267 714Q258 717 254 718T245 724L218 746Q211 752 211
757Q211 761 218 769L261 822Q265 827 269 827Q272 827 277 823L429 713L407 679Z" />
<glyph unicode="&#xda;" horiz-adv-x="638" d="M319 -15Q246 -15 200 -6T127 25T91 87T80 189V625H180V70H324Q378 70 407 74T447 89T458 123V625H558V189Q558 127 548 88T512 26T439 -6T319 -15ZM257 689L235 723L387 833Q393 837 395 837Q399 837 403 832L446
779Q453 770 453 767Q453 761 446 756L419 734Q414 730 410 728T397 724L257 689Z" />
<glyph unicode="&#xdb;" horiz-adv-x="638" d="M319 -15Q246 -15 200 -6T127 25T91 87T80 189V625H180V70H324Q378 70 407 74T447 89T458 123V625H558V189Q558 127 548 88T512 26T439 -6T319 -15ZM237 681L202 715L301 831Q305 837 311 837H329Q335 837 339 831L438
715L403 681L320 745L237 681Z" />
<glyph unicode="&#xdc;" horiz-adv-x="638" d="M319 -15Q246 -15 200 -6T127 25T91 87T80 189V625H180V70H324Q378 70 407 74T447 89T458 123V625H558V189Q558 127 548 88T512 26T439 -6T319 -15ZM412 700Q379 700 370 713T360 757Q360 788 369 801T412 815Q444
815 453 802T463 757Q463 726 454 713T412 700ZM229 700Q196 700 187 713T177 757Q177 788 186 801T229 815Q262 815 271 802T280 757Q280 726 271 713T229 700Z" />
<glyph unicode="&#xdd;" horiz-adv-x="490" d="M227 277L376 625H480L295 215V0H195V215L10 625H114L263 277H227ZM182 689L160 723L312 833Q318 837 320 837Q324 837 328 832L371 779Q378 770 378 767Q378 761 371 756L344 734Q339 730 335 728T322 724L182 689Z" />
<glyph unicode="&#xde;" horiz-adv-x="530" d="M335 522Q401 522 439 502T493 436T510 311Q510 199 473 151T350 103H190V0H90V625H190V522H335ZM405 224V401Q405 425 390 434T336 443H190V182H336Q375 182 390 191T405 224Z" />
<glyph unicode="&#xdf;" horiz-adv-x="630" d="M400 -15Q368 -15 332 -9T258 8L274 88Q305 77 341 71T410 64Q435 64 453 65T485 71V196Q430 221 398 237T350 266T328 289T322 315Q322 340 337 361T371 404T405 451T420 511Q420 554 391 575T300 596Q283 596 264
595T220 588V0H120V431H50V500H120Q125 565 145 603T206 658T312 675Q418 675 469 638T520 525Q520 495 510 466T475 403T410 324Q479 293 517 267T570 210T585 136Q585 57 541 21T400 -15Z" />
<glyph unicode="&#xe0;" horiz-adv-x="545" d="M208 -10Q125 -10 90 24T55 140Q55 192 65 224T105 272T192 293T345 299H390V234H227Q180 234 163 222T146 176V67H280Q326 67 343 79T360 125V420Q323 431 259 431Q220 431 177 425T90 407L77 480Q102 489 135 496T204
506T276 510Q344 510 384 497T442 453T460 370V0H414L387 50Q317 -10 208 -10ZM363 554L223 589Q214 592 210 593T201 599L174 621Q167 627 167 632Q167 636 174 644L217 697Q221 702 225 702Q228 702 233 698L385 588L363 554Z" />
<glyph unicode="&#xe1;" horiz-adv-x="545" d="M208 -10Q125 -10 90 24T55 140Q55 192 65 224T105 272T192 293T345 299H390V234H227Q180 234 163 222T146 176V67H280Q326 67 343 79T360 125V420Q323 431 259 431Q220 431 177 425T90 407L77 480Q102 489 135 496T204
506T276 510Q344 510 384 497T442 453T460 370V0H414L387 50Q317 -10 208 -10ZM213 564L191 598L343 708Q349 712 351 712Q355 712 359 707L402 654Q409 645 409 642Q409 636 402 631L375 609Q370 605 366 603T353 599L213 564Z" />
<glyph unicode="&#xe2;" horiz-adv-x="545" d="M208 -10Q125 -10 90 24T55 140Q55 192 65 224T105 272T192 293T345 299H390V234H227Q180 234 163 222T146 176V67H280Q326 67 343 79T360 125V420Q323 431 259 431Q220 431 177 425T90 407L77 480Q102 489 135 496T204
506T276 510Q344 510 384 497T442 453T460 370V0H414L387 50Q317 -10 208 -10ZM193 556L158 590L257 706Q261 712 267 712H285Q291 712 295 706L394 590L359 556L276 620L193 556Z" />
<glyph unicode="&#xe3;" horiz-adv-x="545" d="M208 -10Q125 -10 90 24T55 140Q55 192 65 224T105 272T192 293T345 299H390V234H227Q180 234 163 222T146 176V67H280Q326 67 343 79T360 125V420Q323 431 259 431Q220 431 177 425T90 407L77 480Q102 489 135 496T204
506T276 510Q344 510 384 497T442 453T460 370V0H414L387 50Q317 -10 208 -10ZM297 564Q288 564 280 567T260 579T227 607L161 574L133 620Q172 648 195 663T231 684T255 690Q264 690 272 687T291 675T325 647L391 680L419 634Q385 608 362 593T324 571T297 564Z"
/>
<glyph unicode="&#xe4;" horiz-adv-x="545" d="M208 -10Q125 -10 90 24T55 140Q55 192 65 224T105 272T192 293T345 299H390V234H227Q180 234 163 222T146 176V67H280Q326 67 343 79T360 125V420Q323 431 259 431Q220 431 177 425T90 407L77 480Q102 489 135 496T204
506T276 510Q344 510 384 497T442 453T460 370V0H414L387 50Q317 -10 208 -10ZM368 575Q335 575 326 588T316 632Q316 663 325 676T368 690Q400 690 409 677T419 632Q419 601 410 588T368 575ZM185 575Q152 575 143 588T133 632Q133 663 142 676T185 690Q218 690
227 677T236 632Q236 601 227 588T185 575Z" />
<glyph unicode="&#xe5;" horiz-adv-x="545" d="M208 -10Q125 -10 90 24T55 140Q55 192 65 224T105 272T192 293T345 299H390V234H227Q180 234 163 222T146 176V67H280Q326 67 343 79T360 125V420Q323 431 259 431Q220 431 177 425T90 407L77 480Q102 489 135 496T204
506T276 510Q344 510 384 497T442 453T460 370V0H414L387 50Q317 -10 208 -10ZM276 539Q223 539 200 564T177 638Q177 687 200 711T276 736Q328 736 351 712T374 638Q374 589 351 564T276 539ZM233 591H275Q294 591 305 594T317 617V684H278Q258 684 246 681T233
659V591Z" />
<glyph unicode="&#xe6;" horiz-adv-x="837" d="M208 -10Q125 -10 90 24T55 140Q55 192 65 224T105 272T192 293T345 299H390V234H227Q180 234 163 222T146 176V67H280Q326 67 343 79T360 125V420Q323 431 259 431Q220 431 177 425T90 407L77 480Q102 489 135 496T204
506T276 510Q344 510 384 497T443 453T461 370V50L395 57Q357 23 312 7T208 -10ZM550 -10Q474 -10 435 10T377 77L397 449Q420 481 460 495T567 510Q646 510 689 497T750 452T767 360Q767 308 757 276T715 228T623 207T461 201H431V266H593Q642 266 659 278T677
324V428H544Q496 428 479 416T461 370V80Q484 74 509 72T568 69Q607 69 646 74T741 93L754 20Q715 6 661 -2T550 -10Z" />
<glyph unicode="&#xe7;" horiz-adv-x="453" d="M240 -10Q186 -10 151 1T96 42T68 121T60 250Q60 329 68 379T96 458T151 498T240 510Q267 510 296 508T353 502T402 492L390 416Q354 424 320 427T251 431Q202 431 183 413T164 347V80Q200 69 266 69Q298 69 328
74T402 93L413 20Q379 6 334 -2T240 -10ZM200 -172Q167 -172 132 -156L139 -107H174Q198 -107 207 -100T217 -75V21H237Q263 7 279 -24T296 -91Q296 -127 270 -149T200 -172Z" />
<glyph unicode="&#xe8;" horiz-adv-x="541" d="M254 -10Q197 -10 159 2T100 43T69 122T60 250Q60 349 79 406T145 486T271 510Q350 510 393 497T454 452T471 360Q471 308 460 276T418 228T326 207T165 201H135V266H297Q346 266 363 278T381 324V428H248Q200 428
183 416T165 370V80Q205 69 272 69Q312 69 351 74T445 93L458 20Q421 6 367 -2T254 -10ZM358 554L218 589Q209 592 205 593T196 599L169 621Q162 627 162 632Q162 636 169 644L212 697Q216 702 220 702Q223 702 228 698L380 588L358 554Z" />
<glyph unicode="&#xe9;" horiz-adv-x="541" d="M254 -10Q197 -10 159 2T100 43T69 122T60 250Q60 349 79 406T145 486T271 510Q350 510 393 497T454 452T471 360Q471 308 460 276T418 228T326 207T165 201H135V266H297Q346 266 363 278T381 324V428H248Q200 428
183 416T165 370V80Q205 69 272 69Q312 69 351 74T445 93L458 20Q421 6 367 -2T254 -10ZM208 564L186 598L338 708Q344 712 346 712Q350 712 354 707L397 654Q404 645 404 642Q404 636 397 631L370 609Q365 605 361 603T348 599L208 564Z" />
<glyph unicode="&#xea;" horiz-adv-x="541" d="M254 -10Q197 -10 159 2T100 43T69 122T60 250Q60 349 79 406T145 486T271 510Q350 510 393 497T454 452T471 360Q471 308 460 276T418 228T326 207T165 201H135V266H297Q346 266 363 278T381 324V428H248Q200 428
183 416T165 370V80Q205 69 272 69Q312 69 351 74T445 93L458 20Q421 6 367 -2T254 -10ZM188 556L153 590L252 706Q256 712 262 712H280Q286 712 290 706L389 590L354 556L271 620L188 556Z" />
<glyph unicode="&#xeb;" horiz-adv-x="541" d="M254 -10Q197 -10 159 2T100 43T69 122T60 250Q60 349 79 406T145 486T271 510Q350 510 393 497T454 452T471 360Q471 308 460 276T418 228T326 207T165 201H135V266H297Q346 266 363 278T381 324V428H248Q200 428
183 416T165 370V80Q205 69 272 69Q312 69 351 74T445 93L458 20Q421 6 367 -2T254 -10ZM363 575Q330 575 321 588T311 632Q311 663 320 676T363 690Q395 690 404 677T414 632Q414 601 405 588T363 575ZM180 575Q147 575 138 588T128 632Q128 663 137 676T180 690Q213
690 222 677T231 632Q231 601 222 588T180 575Z" />
<glyph unicode="&#xec;" horiz-adv-x="280" d="M90 493L190 508V0H90V493ZM483 554L343 589Q334 592 330 593T321 599L294 621Q287 627 287 632Q287 636 294 644L337 697Q341 702 345 702Q348 702 353 698L505 588L483 554Z" />
<glyph unicode="&#xed;" horiz-adv-x="280" d="M90 493L190 508V0H90V493ZM333 564L311 598L463 708Q469 712 471 712Q475 712 479 707L522 654Q529 645 529 642Q529 636 522 631L495 609Q490 605 486 603T473 599L333 564Z" />
<glyph unicode="&#xee;" horiz-adv-x="280" d="M90 493L190 508V0H90V493ZM313 556L278 590L377 706Q381 712 387 712H405Q411 712 415 706L514 590L479 556L396 620L313 556Z" />
<glyph unicode="&#xef;" horiz-adv-x="280" d="M90 493L190 508V0H90V493ZM488 575Q455 575 446 588T436 632Q436 663 445 676T488 690Q520 690 529 677T539 632Q539 601 530 588T488 575ZM305 575Q272 575 263 588T253 632Q253 663 262 676T305 690Q338 690 347
677T356 632Q356 601 347 588T305 575Z" />
<glyph unicode="&#xf0;" horiz-adv-x="557" d="M277 -10Q214 -10 173 0T108 35T75 104T65 215Q65 282 74 326T107 395T171 430T277 440H418L489 358V215Q489 147 480 104T447 35T382 0T277 -10ZM170 72H338Q365 72 374 77T384 97V358H216Q189 358 180 353T170
333V72ZM394 358Q394 427 367 502T285 653L371 677Q407 629 433 573T474 462T489 358H394ZM276 495L267 522Q261 540 261 551Q261 566 278 572L498 645L507 618Q513 600 513 589Q513 574 496 568L276 495Z" />
<glyph unicode="&#xf1;" horiz-adv-x="576" d="M90 0V500H136L163 450Q200 481 245 495T349 510Q419 510 455 489T491 425V0H391V428H275Q226 428 208 416T190 370V0H90ZM319 564Q310 564 302 567T282 579T249 607L183 574L155 620Q194 648 217 663T253 684T277
690Q286 690 294 687T313 675T347 647L413 680L441 634Q407 608 384 593T346 571T319 564Z" />
<glyph unicode="&#xf2;" horiz-adv-x="554" d="M277 -10Q211 -10 169 1T104 41T70 121T60 250Q60 329 70 379T103 458T169 498T277 510Q343 510 385 499T452 459T485 380T494 250Q494 172 485 121T451 42T385 2T277 -10ZM164 72H342Q370 72 380 77T390 97V428H212Q183
428 174 423T164 403V72ZM364 554L224 589Q215 592 211 593T202 599L175 621Q168 627 168 632Q168 636 175 644L218 697Q222 702 226 702Q229 702 234 698L386 588L364 554Z" />
<glyph unicode="&#xf3;" horiz-adv-x="554" d="M277 -10Q211 -10 169 1T104 41T70 121T60 250Q60 329 70 379T103 458T169 498T277 510Q343 510 385 499T452 459T485 380T494 250Q494 172 485 121T451 42T385 2T277 -10ZM164 72H342Q370 72 380 77T390 97V428H212Q183
428 174 423T164 403V72ZM214 564L192 598L344 708Q350 712 352 712Q356 712 360 707L403 654Q410 645 410 642Q410 636 403 631L376 609Q371 605 367 603T354 599L214 564Z" />
<glyph unicode="&#xf4;" horiz-adv-x="554" d="M277 -10Q211 -10 169 1T104 41T70 121T60 250Q60 329 70 379T103 458T169 498T277 510Q343 510 385 499T452 459T485 380T494 250Q494 172 485 121T451 42T385 2T277 -10ZM164 72H342Q370 72 380 77T390 97V428H212Q183
428 174 423T164 403V72ZM194 556L159 590L258 706Q262 712 268 712H286Q292 712 296 706L395 590L360 556L277 620L194 556Z" />
<glyph unicode="&#xf5;" horiz-adv-x="554" d="M277 -10Q211 -10 169 1T104 41T70 121T60 250Q60 329 70 379T103 458T169 498T277 510Q343 510 385 499T452 459T485 380T494 250Q494 172 485 121T451 42T385 2T277 -10ZM164 72H342Q370 72 380 77T390 97V428H212Q183
428 174 423T164 403V72ZM298 564Q289 564 281 567T261 579T228 607L162 574L134 620Q173 648 196 663T232 684T256 690Q265 690 273 687T292 675T326 647L392 680L420 634Q386 608 363 593T325 571T298 564Z" />
<glyph unicode="&#xf6;" horiz-adv-x="554" d="M277 -10Q211 -10 169 1T104 41T70 121T60 250Q60 329 70 379T103 458T169 498T277 510Q343 510 385 499T452 459T485 380T494 250Q494 172 485 121T451 42T385 2T277 -10ZM164 72H342Q370 72 380 77T390 97V428H212Q183
428 174 423T164 403V72ZM369 575Q336 575 327 588T317 632Q317 663 326 676T369 690Q401 690 410 677T420 632Q420 601 411 588T369 575ZM186 575Q153 575 144 588T134 632Q134 663 143 676T186 690Q219 690 228 677T237 632Q237 601 228 588T186 575Z" />
<glyph unicode="&#xf7;" horiz-adv-x="530" d="M80 352H450V272H80V352ZM217 133Q217 160 226 172T265 184Q295 184 304 172T314 133Q314 105 305 94T265 82Q235 82 226 93T217 133ZM217 474Q217 501 226 513T265 525Q295 525 304 513T314 474Q314 446 305 435T265
423Q235 423 226 434T217 474Z" />
<glyph unicode="&#xf8;" horiz-adv-x="554" d="M277 -10Q211 -10 169 1T104 41T70 121T60 250Q60 329 70 379T103 458T169 498T277 510Q343 510 385 499T452 459T485 380T494 250Q494 172 485 121T451 42T385 2T277 -10ZM164 72H342Q370 72 380 77T390 97V428H212Q183
428 174 423T164 403V72ZM149 178Q141 163 132 158T106 153H75L405 833Q413 848 422 853T448 858H479L149 178Z" />
<glyph unicode="&#xf9;" horiz-adv-x="576" d="M486 500V0H440L413 50Q373 19 326 5T217 -10Q149 -10 117 15T85 95V500H185V67H301Q351 67 368 79T386 125V500H486ZM375 554L235 589Q226 592 222 593T213 599L186 621Q179 627 179 632Q179 636 186 644L229 697Q233
702 237 702Q240 702 245 698L397 588L375 554Z" />
<glyph unicode="&#xfa;" horiz-adv-x="576" d="M486 500V0H440L413 50Q373 19 326 5T217 -10Q149 -10 117 15T85 95V500H185V67H301Q351 67 368 79T386 125V500H486ZM225 564L203 598L355 708Q361 712 363 712Q367 712 371 707L414 654Q421 645 421 642Q421 636
414 631L387 609Q382 605 378 603T365 599L225 564Z" />
<glyph unicode="&#xfb;" horiz-adv-x="576" d="M486 500V0H440L413 50Q373 19 326 5T217 -10Q149 -10 117 15T85 95V500H185V67H301Q351 67 368 79T386 125V500H486ZM205 556L170 590L269 706Q273 712 279 712H297Q303 712 307 706L406 590L371 556L288 620L205 556Z" />
<glyph unicode="&#xfc;" horiz-adv-x="576" d="M486 500V0H440L413 50Q373 19 326 5T217 -10Q149 -10 117 15T85 95V500H185V67H301Q351 67 368 79T386 125V500H486ZM380 575Q347 575 338 588T328 632Q328 663 337 676T380 690Q412 690 421 677T431 632Q431 601
422 588T380 575ZM197 575Q164 575 155 588T145 632Q145 663 154 676T197 690Q230 690 239 677T248 632Q248 601 239 588T197 575Z" />
<glyph unicode="&#xfd;" horiz-adv-x="450" d="M149 30L6 500H105L220 115H230L345 500H444L301 30H149ZM93 -175Q71 -175 48 -172T6 -164L10 -111L79 -102Q117 -97 138 -88T172 -58T196 0L205 30H301Q278 -47 251 -92T186 -156T93 -175ZM162 564L140 598L292
708Q298 712 300 712Q304 712 308 707L351 654Q358 645 358 642Q358 636 351 631L324 609Q319 605 315 603T302 599L162 564Z" />
<glyph unicode="&#xfe;" horiz-adv-x="569" d="M329 -15Q265 -15 225 -5T163 34T133 114T125 250Q125 332 133 383T162 462T224 500T329 510Q384 510 419 499T473 459T501 380T509 250Q509 171 501 120T473 39T418 -3T329 -15ZM190 67H358Q385 67 394 72T404 92V428H236Q210
428 200 424T190 408V67ZM90 -177V650L190 665V-165L90 -177Z" />
<glyph unicode="&#xff;" horiz-adv-x="450" d="M149 30L6 500H105L220 115H230L345 500H444L301 30H149ZM93 -175Q71 -175 48 -172T6 -164L10 -111L79 -102Q117 -97 138 -88T172 -58T196 0L205 30H301Q278 -47 251 -92T186 -156T93 -175ZM317 575Q284 575 275
588T265 632Q265 663 274 676T317 690Q349 690 358 677T368 632Q368 601 359 588T317 575ZM134 575Q101 575 92 588T82 632Q82 663 91 676T134 690Q167 690 176 677T185 632Q185 601 176 588T134 575Z" />
<glyph unicode="&#x2013;" horiz-adv-x="535" d="M33 283Q33 307 45 312T84 317H502V267Q502 243 490 238T451 233H33V283Z" />
<glyph unicode="&#x2014;" horiz-adv-x="794" d="M33 283Q33 307 45 312T84 317H761V267Q761 243 749 238T710 233H33V283Z" />
<glyph unicode="&#x2018;" horiz-adv-x="230" d="M114 682L159 668L139 578Q162 573 171 559T180 512Q180 473 166 458T113 443Q78 443 64 458T50 512Q50 524 52 536T60 563T76 601L114 682Z" />
<glyph unicode="&#x2019;" horiz-adv-x="230" d="M116 443L71 457L91 547Q68 552 59 566T50 613Q50 652 64 667T117 682Q152 682 166 667T180 613Q180 601 178 589T170 562T154 524L116 443Z" />
<glyph unicode="&#x201a;" horiz-adv-x="230" d="M116 -108L71 -94L91 -4Q68 1 59 15T50 62Q50 101 64 116T117 131Q152 131 166 116T180 62Q180 50 178 38T170 11T154 -27L116 -108Z" />
<glyph unicode="&#x201c;" horiz-adv-x="400" d="M114 682L159 668L139 578Q162 573 171 559T180 512Q180 473 166 458T113 443Q78 443 64 458T50 512Q50 524 52 536T60 563T76 601L114 682ZM284 682L329 668L309 578Q332 573 341 559T350 512Q350 473 336 458T283
443Q248 443 234 458T220 512Q220 524 222 536T230 563T246 601L284 682Z" />
<glyph unicode="&#x201d;" horiz-adv-x="400" d="M286 443L241 457L261 547Q238 552 229 566T220 613Q220 652 234 667T287 682Q322 682 336 667T350 613Q350 601 348 589T340 562T324 524L286 443ZM116 443L71 457L91 547Q68 552 59 566T50 613Q50 652 64 667T117
682Q152 682 166 667T180 613Q180 601 178 589T170 562T154 524L116 443Z" />
<glyph unicode="&#x201e;" horiz-adv-x="401" d="M287 -108L242 -94L262 -4Q239 1 230 15T221 62Q221 101 235 116T288 131Q323 131 337 116T351 62Q351 50 349 38T341 11T325 -27L287 -108ZM116 -108L71 -94L91 -4Q68 1 59 15T50 62Q50 101 64 116T117 131Q152
131 166 116T180 62Q180 50 178 38T170 11T154 -27L116 -108Z" />
<glyph unicode="&#x2022;" horiz-adv-x="282" d="M65 314Q65 340 71 357T94 381T142 389Q172 389 188 382T211 357T217 314Q217 287 211 271T189 248T142 241Q110 241 94 248T72 271T65 314Z" />
<glyph unicode="&#x2039;" horiz-adv-x="236" d="M176 56L25 209V290L176 444L211 417L115 250L211 83L176 56Z" />
<glyph unicode="&#x203a;" horiz-adv-x="236" d="M60 444L211 291V210L60 56L25 83L121 250L25 417L60 444Z" />
</font>
</defs>
</svg>
